<mxfile host="Electron" modified="2023-12-21T06:36:36.161Z" agent="Mozilla/5.0 (Macintosh; Intel Mac OS X 10_15_7) AppleWebKit/537.36 (KHTML, like Gecko) draw.io/22.1.11 Chrome/114.0.5735.289 Electron/25.9.8 Safari/537.36" etag="c-Laho0sSq48YiRLQ4WX" version="22.1.11" type="device">
  <diagram name="Page-1" id="V5N2SlOGHVLI3GCZStcv">
    <mxGraphModel dx="1506" dy="642" grid="0" gridSize="10" guides="1" tooltips="1" connect="1" arrows="1" fold="1" page="0" pageScale="1" pageWidth="850" pageHeight="1100" math="0" shadow="0">
      <root>
        <mxCell id="0" />
        <mxCell id="1" parent="0" />
        <mxCell id="fkDSugApjvzEpdaWXrS4-1" value="" style="endArrow=none;dashed=1;html=1;dashPattern=1 3;strokeWidth=2;rounded=0;" parent="1" edge="1">
          <mxGeometry width="50" height="50" relative="1" as="geometry">
            <mxPoint y="407" as="sourcePoint" />
            <mxPoint x="850" y="407" as="targetPoint" />
          </mxGeometry>
        </mxCell>
        <mxCell id="fkDSugApjvzEpdaWXrS4-2" value="Delete" style="text;html=1;align=center;verticalAlign=middle;whiteSpace=wrap;rounded=0;fontSize=30;fontFamily=Architects Daughter;fillColor=#ffe6cc;strokeColor=#d79b00;sketch=1;curveFitting=1;jiggle=2;" parent="1" vertex="1">
          <mxGeometry x="12" y="429" width="108" height="40" as="geometry" />
        </mxCell>
        <mxCell id="fkDSugApjvzEpdaWXrS4-3" value="Case 1. 与其他word不重叠" style="text;html=1;strokeColor=#ae4132;fillColor=#fad9d5;align=center;verticalAlign=middle;whiteSpace=wrap;rounded=0;fontSize=20;fontFamily=Architects Daughter;sketch=1;curveFitting=1;jiggle=2;shadow=0;" parent="1" vertex="1">
          <mxGeometry x="12" y="509" width="277" height="30" as="geometry" />
        </mxCell>
        <mxCell id="fkDSugApjvzEpdaWXrS4-22" value="" style="group" parent="1" vertex="1" connectable="0">
          <mxGeometry x="163" y="56" width="364" height="319" as="geometry" />
        </mxCell>
        <mxCell id="grxsFbbpWDnc_xKcmZjA-1" value="Root" style="ellipse;whiteSpace=wrap;html=1;hachureGap=4;fontFamily=Architects Daughter;fontSource=https%3A%2F%2Ffonts.googleapis.com%2Fcss%3Ffamily%3DArchitects%2BDaughter;fontSize=20;fillColor=#fff2cc;strokeColor=#d6b656;sketch=1;curveFitting=1;jiggle=2;" parent="fkDSugApjvzEpdaWXrS4-22" vertex="1">
          <mxGeometry x="202" width="80" height="50" as="geometry" />
        </mxCell>
        <mxCell id="grxsFbbpWDnc_xKcmZjA-3" value="a" style="ellipse;whiteSpace=wrap;html=1;aspect=fixed;hachureGap=4;fontFamily=Architects Daughter;fontSource=https%3A%2F%2Ffonts.googleapis.com%2Fcss%3Ffamily%3DArchitects%2BDaughter;fontSize=20;strokeColor=#97D077;strokeWidth=2;sketch=1;curveFitting=1;jiggle=2;" parent="fkDSugApjvzEpdaWXrS4-22" vertex="1">
          <mxGeometry x="200" y="75" width="30" height="30" as="geometry" />
        </mxCell>
        <mxCell id="grxsFbbpWDnc_xKcmZjA-8" style="rounded=0;hachureGap=4;orthogonalLoop=1;jettySize=auto;html=1;exitX=0.5;exitY=1;exitDx=0;exitDy=0;entryX=1;entryY=0;entryDx=0;entryDy=0;fontFamily=Architects Daughter;fontSource=https%3A%2F%2Ffonts.googleapis.com%2Fcss%3Ffamily%3DArchitects%2BDaughter;fontSize=16;sketch=1;curveFitting=1;jiggle=2;" parent="fkDSugApjvzEpdaWXrS4-22" source="grxsFbbpWDnc_xKcmZjA-1" target="grxsFbbpWDnc_xKcmZjA-3" edge="1">
          <mxGeometry relative="1" as="geometry" />
        </mxCell>
        <mxCell id="grxsFbbpWDnc_xKcmZjA-4" value="p" style="ellipse;whiteSpace=wrap;html=1;aspect=fixed;hachureGap=4;fontFamily=Architects Daughter;fontSource=https%3A%2F%2Ffonts.googleapis.com%2Fcss%3Ffamily%3DArchitects%2BDaughter;fontSize=20;strokeColor=#97D077;strokeWidth=2;sketch=1;curveFitting=1;jiggle=2;" parent="fkDSugApjvzEpdaWXrS4-22" vertex="1">
          <mxGeometry x="172" y="129" width="30" height="30" as="geometry" />
        </mxCell>
        <mxCell id="grxsFbbpWDnc_xKcmZjA-9" style="rounded=0;hachureGap=4;orthogonalLoop=1;jettySize=auto;html=1;exitX=0.5;exitY=1;exitDx=0;exitDy=0;entryX=1;entryY=0;entryDx=0;entryDy=0;fontFamily=Architects Daughter;fontSource=https%3A%2F%2Ffonts.googleapis.com%2Fcss%3Ffamily%3DArchitects%2BDaughter;fontSize=16;sketch=1;curveFitting=1;jiggle=2;" parent="fkDSugApjvzEpdaWXrS4-22" source="grxsFbbpWDnc_xKcmZjA-3" target="grxsFbbpWDnc_xKcmZjA-4" edge="1">
          <mxGeometry relative="1" as="geometry" />
        </mxCell>
        <mxCell id="grxsFbbpWDnc_xKcmZjA-5" value="p" style="ellipse;whiteSpace=wrap;html=1;aspect=fixed;hachureGap=4;fontFamily=Architects Daughter;fontSource=https%3A%2F%2Ffonts.googleapis.com%2Fcss%3Ffamily%3DArchitects%2BDaughter;fontSize=20;strokeColor=#FF3333;strokeWidth=2;sketch=1;curveFitting=1;jiggle=2;" parent="fkDSugApjvzEpdaWXrS4-22" vertex="1">
          <mxGeometry x="144" y="182" width="30" height="30" as="geometry" />
        </mxCell>
        <mxCell id="grxsFbbpWDnc_xKcmZjA-10" style="rounded=0;hachureGap=4;orthogonalLoop=1;jettySize=auto;html=1;exitX=0.5;exitY=1;exitDx=0;exitDy=0;entryX=1;entryY=0;entryDx=0;entryDy=0;fontFamily=Architects Daughter;fontSource=https%3A%2F%2Ffonts.googleapis.com%2Fcss%3Ffamily%3DArchitects%2BDaughter;fontSize=16;sketch=1;curveFitting=1;jiggle=2;" parent="fkDSugApjvzEpdaWXrS4-22" source="grxsFbbpWDnc_xKcmZjA-4" target="grxsFbbpWDnc_xKcmZjA-5" edge="1">
          <mxGeometry relative="1" as="geometry" />
        </mxCell>
        <mxCell id="grxsFbbpWDnc_xKcmZjA-6" value="l" style="ellipse;whiteSpace=wrap;html=1;aspect=fixed;hachureGap=4;fontFamily=Architects Daughter;fontSource=https%3A%2F%2Ffonts.googleapis.com%2Fcss%3Ffamily%3DArchitects%2BDaughter;fontSize=20;strokeColor=#97D077;strokeWidth=2;sketch=1;curveFitting=1;jiggle=2;" parent="fkDSugApjvzEpdaWXrS4-22" vertex="1">
          <mxGeometry x="116" y="236" width="30" height="30" as="geometry" />
        </mxCell>
        <mxCell id="grxsFbbpWDnc_xKcmZjA-7" value="e" style="ellipse;whiteSpace=wrap;html=1;aspect=fixed;hachureGap=4;fontFamily=Architects Daughter;fontSource=https%3A%2F%2Ffonts.googleapis.com%2Fcss%3Ffamily%3DArchitects%2BDaughter;fontSize=20;strokeColor=#FF3333;strokeWidth=2;sketch=1;curveFitting=1;jiggle=2;" parent="fkDSugApjvzEpdaWXrS4-22" vertex="1">
          <mxGeometry x="88" y="289" width="30" height="30" as="geometry" />
        </mxCell>
        <mxCell id="grxsFbbpWDnc_xKcmZjA-12" style="rounded=0;hachureGap=4;orthogonalLoop=1;jettySize=auto;html=1;exitX=0.5;exitY=1;exitDx=0;exitDy=0;entryX=1;entryY=0;entryDx=0;entryDy=0;fontFamily=Architects Daughter;fontSource=https%3A%2F%2Ffonts.googleapis.com%2Fcss%3Ffamily%3DArchitects%2BDaughter;fontSize=16;sketch=1;curveFitting=1;jiggle=2;" parent="fkDSugApjvzEpdaWXrS4-22" source="grxsFbbpWDnc_xKcmZjA-6" target="grxsFbbpWDnc_xKcmZjA-7" edge="1">
          <mxGeometry relative="1" as="geometry" />
        </mxCell>
        <mxCell id="grxsFbbpWDnc_xKcmZjA-11" style="rounded=0;hachureGap=4;orthogonalLoop=1;jettySize=auto;html=1;exitX=0.5;exitY=1;exitDx=0;exitDy=0;entryX=1;entryY=0;entryDx=0;entryDy=0;fontFamily=Architects Daughter;fontSource=https%3A%2F%2Ffonts.googleapis.com%2Fcss%3Ffamily%3DArchitects%2BDaughter;fontSize=16;sketch=1;curveFitting=1;jiggle=2;" parent="fkDSugApjvzEpdaWXrS4-22" source="grxsFbbpWDnc_xKcmZjA-5" target="grxsFbbpWDnc_xKcmZjA-6" edge="1">
          <mxGeometry relative="1" as="geometry" />
        </mxCell>
        <mxCell id="grxsFbbpWDnc_xKcmZjA-15" value="&lt;ul style=&quot;font-size: 18px;&quot;&gt;&lt;li style=&quot;font-size: 18px;&quot;&gt;&lt;font style=&quot;font-size: 18px;&quot;&gt;apple&lt;/font&gt;&lt;/li&gt;&lt;li style=&quot;font-size: 18px;&quot;&gt;app&lt;/li&gt;&lt;li style=&quot;font-size: 18px;&quot;&gt;but&lt;/li&gt;&lt;/ul&gt;" style="html=1;aspect=fixed;sketch=1;hachureGap=4;jiggle=2;curveFitting=1;fontFamily=Architects Daughter;fontSource=https%3A%2F%2Ffonts.googleapis.com%2Fcss%3Ffamily%3DArchitects%2BDaughter;fontSize=18;align=left;spacing=2;whiteSpace=wrap;verticalAlign=middle;horizontal=1;fillColor=#f5f5f5;strokeColor=#666666;fontColor=#333333;" parent="fkDSugApjvzEpdaWXrS4-22" vertex="1">
          <mxGeometry y="3" width="102" height="102" as="geometry" />
        </mxCell>
        <mxCell id="grxsFbbpWDnc_xKcmZjA-16" value="b" style="ellipse;whiteSpace=wrap;html=1;aspect=fixed;hachureGap=4;fontFamily=Architects Daughter;fontSource=https%3A%2F%2Ffonts.googleapis.com%2Fcss%3Ffamily%3DArchitects%2BDaughter;fontSize=20;strokeColor=#97D077;strokeWidth=2;sketch=1;curveFitting=1;jiggle=2;" parent="fkDSugApjvzEpdaWXrS4-22" vertex="1">
          <mxGeometry x="266" y="75" width="30" height="30" as="geometry" />
        </mxCell>
        <mxCell id="grxsFbbpWDnc_xKcmZjA-19" style="rounded=0;sketch=1;hachureGap=4;jiggle=2;curveFitting=1;orthogonalLoop=1;jettySize=auto;html=1;exitX=0.5;exitY=1;exitDx=0;exitDy=0;entryX=0;entryY=0;entryDx=0;entryDy=0;fontFamily=Architects Daughter;fontSource=https%3A%2F%2Ffonts.googleapis.com%2Fcss%3Ffamily%3DArchitects%2BDaughter;fontSize=16;" parent="fkDSugApjvzEpdaWXrS4-22" source="grxsFbbpWDnc_xKcmZjA-1" target="grxsFbbpWDnc_xKcmZjA-16" edge="1">
          <mxGeometry relative="1" as="geometry" />
        </mxCell>
        <mxCell id="grxsFbbpWDnc_xKcmZjA-17" value="u" style="ellipse;whiteSpace=wrap;html=1;aspect=fixed;hachureGap=4;fontFamily=Architects Daughter;fontSource=https%3A%2F%2Ffonts.googleapis.com%2Fcss%3Ffamily%3DArchitects%2BDaughter;fontSize=20;strokeColor=#97D077;strokeWidth=2;sketch=1;curveFitting=1;jiggle=2;" parent="fkDSugApjvzEpdaWXrS4-22" vertex="1">
          <mxGeometry x="300" y="127" width="30" height="30" as="geometry" />
        </mxCell>
        <mxCell id="grxsFbbpWDnc_xKcmZjA-20" style="rounded=0;sketch=1;hachureGap=4;jiggle=2;curveFitting=1;orthogonalLoop=1;jettySize=auto;html=1;exitX=0.5;exitY=1;exitDx=0;exitDy=0;entryX=0;entryY=0;entryDx=0;entryDy=0;fontFamily=Architects Daughter;fontSource=https%3A%2F%2Ffonts.googleapis.com%2Fcss%3Ffamily%3DArchitects%2BDaughter;fontSize=16;" parent="fkDSugApjvzEpdaWXrS4-22" source="grxsFbbpWDnc_xKcmZjA-16" target="grxsFbbpWDnc_xKcmZjA-17" edge="1">
          <mxGeometry relative="1" as="geometry" />
        </mxCell>
        <mxCell id="grxsFbbpWDnc_xKcmZjA-18" value="t" style="ellipse;whiteSpace=wrap;html=1;aspect=fixed;hachureGap=4;fontFamily=Architects Daughter;fontSource=https%3A%2F%2Ffonts.googleapis.com%2Fcss%3Ffamily%3DArchitects%2BDaughter;fontSize=20;strokeColor=#FF3333;strokeWidth=2;sketch=1;curveFitting=1;jiggle=2;" parent="fkDSugApjvzEpdaWXrS4-22" vertex="1">
          <mxGeometry x="334" y="178" width="30" height="30" as="geometry" />
        </mxCell>
        <mxCell id="grxsFbbpWDnc_xKcmZjA-21" style="rounded=0;sketch=1;hachureGap=4;jiggle=2;curveFitting=1;orthogonalLoop=1;jettySize=auto;html=1;exitX=0.5;exitY=1;exitDx=0;exitDy=0;entryX=0;entryY=0;entryDx=0;entryDy=0;fontFamily=Architects Daughter;fontSource=https%3A%2F%2Ffonts.googleapis.com%2Fcss%3Ffamily%3DArchitects%2BDaughter;fontSize=16;" parent="fkDSugApjvzEpdaWXrS4-22" source="grxsFbbpWDnc_xKcmZjA-17" target="grxsFbbpWDnc_xKcmZjA-18" edge="1">
          <mxGeometry relative="1" as="geometry" />
        </mxCell>
        <mxCell id="fkDSugApjvzEpdaWXrS4-45" value="Case 2. 是其他word的前缀" style="text;html=1;strokeColor=#ae4132;fillColor=#fad9d5;align=center;verticalAlign=middle;whiteSpace=wrap;rounded=0;fontSize=20;fontFamily=Architects Daughter;sketch=1;curveFitting=1;jiggle=2;shadow=0;" parent="1" vertex="1">
          <mxGeometry x="12" y="953" width="277" height="30" as="geometry" />
        </mxCell>
        <mxCell id="fkDSugApjvzEpdaWXrS4-46" value="" style="group" parent="1" vertex="1" connectable="0">
          <mxGeometry x="12" y="579" width="747" height="319" as="geometry" />
        </mxCell>
        <mxCell id="fkDSugApjvzEpdaWXrS4-6" value="Root" style="ellipse;whiteSpace=wrap;html=1;hachureGap=4;fontFamily=Architects Daughter;fontSource=https%3A%2F%2Ffonts.googleapis.com%2Fcss%3Ffamily%3DArchitects%2BDaughter;fontSize=20;fillColor=#fff2cc;strokeColor=#d6b656;sketch=1;curveFitting=1;jiggle=2;" parent="fkDSugApjvzEpdaWXrS4-46" vertex="1">
          <mxGeometry x="253" width="80" height="50" as="geometry" />
        </mxCell>
        <mxCell id="fkDSugApjvzEpdaWXrS4-8" value="a" style="ellipse;whiteSpace=wrap;html=1;aspect=fixed;hachureGap=4;fontFamily=Architects Daughter;fontSource=https%3A%2F%2Ffonts.googleapis.com%2Fcss%3Ffamily%3DArchitects%2BDaughter;fontSize=20;strokeColor=#97D077;strokeWidth=2;sketch=1;curveFitting=1;jiggle=2;" parent="fkDSugApjvzEpdaWXrS4-46" vertex="1">
          <mxGeometry x="251" y="75" width="30" height="30" as="geometry" />
        </mxCell>
        <mxCell id="fkDSugApjvzEpdaWXrS4-4" style="rounded=0;hachureGap=4;orthogonalLoop=1;jettySize=auto;html=1;exitX=0.5;exitY=1;exitDx=0;exitDy=0;entryX=1;entryY=0;entryDx=0;entryDy=0;fontFamily=Architects Daughter;fontSource=https%3A%2F%2Ffonts.googleapis.com%2Fcss%3Ffamily%3DArchitects%2BDaughter;fontSize=16;sketch=1;curveFitting=1;jiggle=2;" parent="fkDSugApjvzEpdaWXrS4-46" source="fkDSugApjvzEpdaWXrS4-6" target="fkDSugApjvzEpdaWXrS4-8" edge="1">
          <mxGeometry relative="1" as="geometry" />
        </mxCell>
        <mxCell id="fkDSugApjvzEpdaWXrS4-10" value="p" style="ellipse;whiteSpace=wrap;html=1;aspect=fixed;hachureGap=4;fontFamily=Architects Daughter;fontSource=https%3A%2F%2Ffonts.googleapis.com%2Fcss%3Ffamily%3DArchitects%2BDaughter;fontSize=20;strokeColor=#97D077;strokeWidth=2;sketch=1;curveFitting=1;jiggle=2;" parent="fkDSugApjvzEpdaWXrS4-46" vertex="1">
          <mxGeometry x="223" y="129" width="30" height="30" as="geometry" />
        </mxCell>
        <mxCell id="fkDSugApjvzEpdaWXrS4-7" style="rounded=0;hachureGap=4;orthogonalLoop=1;jettySize=auto;html=1;exitX=0.5;exitY=1;exitDx=0;exitDy=0;entryX=1;entryY=0;entryDx=0;entryDy=0;fontFamily=Architects Daughter;fontSource=https%3A%2F%2Ffonts.googleapis.com%2Fcss%3Ffamily%3DArchitects%2BDaughter;fontSize=16;sketch=1;curveFitting=1;jiggle=2;" parent="fkDSugApjvzEpdaWXrS4-46" source="fkDSugApjvzEpdaWXrS4-8" target="fkDSugApjvzEpdaWXrS4-10" edge="1">
          <mxGeometry relative="1" as="geometry" />
        </mxCell>
        <mxCell id="fkDSugApjvzEpdaWXrS4-11" value="p" style="ellipse;whiteSpace=wrap;html=1;aspect=fixed;hachureGap=4;fontFamily=Architects Daughter;fontSource=https%3A%2F%2Ffonts.googleapis.com%2Fcss%3Ffamily%3DArchitects%2BDaughter;fontSize=20;strokeColor=#FF3333;strokeWidth=2;sketch=1;curveFitting=1;jiggle=2;" parent="fkDSugApjvzEpdaWXrS4-46" vertex="1">
          <mxGeometry x="195" y="182" width="30" height="30" as="geometry" />
        </mxCell>
        <mxCell id="fkDSugApjvzEpdaWXrS4-9" style="rounded=0;hachureGap=4;orthogonalLoop=1;jettySize=auto;html=1;exitX=0.5;exitY=1;exitDx=0;exitDy=0;entryX=1;entryY=0;entryDx=0;entryDy=0;fontFamily=Architects Daughter;fontSource=https%3A%2F%2Ffonts.googleapis.com%2Fcss%3Ffamily%3DArchitects%2BDaughter;fontSize=16;sketch=1;curveFitting=1;jiggle=2;" parent="fkDSugApjvzEpdaWXrS4-46" source="fkDSugApjvzEpdaWXrS4-10" target="fkDSugApjvzEpdaWXrS4-11" edge="1">
          <mxGeometry relative="1" as="geometry" />
        </mxCell>
        <mxCell id="fkDSugApjvzEpdaWXrS4-13" value="l" style="ellipse;whiteSpace=wrap;html=1;aspect=fixed;hachureGap=4;fontFamily=Architects Daughter;fontSource=https%3A%2F%2Ffonts.googleapis.com%2Fcss%3Ffamily%3DArchitects%2BDaughter;fontSize=20;strokeColor=#97D077;strokeWidth=2;sketch=1;curveFitting=1;jiggle=2;" parent="fkDSugApjvzEpdaWXrS4-46" vertex="1">
          <mxGeometry x="167" y="236" width="30" height="30" as="geometry" />
        </mxCell>
        <mxCell id="fkDSugApjvzEpdaWXrS4-14" value="e" style="ellipse;whiteSpace=wrap;html=1;aspect=fixed;hachureGap=4;fontFamily=Architects Daughter;fontSource=https%3A%2F%2Ffonts.googleapis.com%2Fcss%3Ffamily%3DArchitects%2BDaughter;fontSize=20;strokeColor=#FF3333;strokeWidth=2;sketch=1;curveFitting=1;jiggle=2;" parent="fkDSugApjvzEpdaWXrS4-46" vertex="1">
          <mxGeometry x="139" y="289" width="30" height="30" as="geometry" />
        </mxCell>
        <mxCell id="fkDSugApjvzEpdaWXrS4-12" style="rounded=0;hachureGap=4;orthogonalLoop=1;jettySize=auto;html=1;exitX=0;exitY=1;exitDx=0;exitDy=0;entryX=0.5;entryY=0;entryDx=0;entryDy=0;fontFamily=Architects Daughter;fontSource=https%3A%2F%2Ffonts.googleapis.com%2Fcss%3Ffamily%3DArchitects%2BDaughter;fontSize=16;sketch=1;curveFitting=1;jiggle=2;" parent="fkDSugApjvzEpdaWXrS4-46" source="fkDSugApjvzEpdaWXrS4-13" target="fkDSugApjvzEpdaWXrS4-14" edge="1">
          <mxGeometry relative="1" as="geometry" />
        </mxCell>
        <mxCell id="fkDSugApjvzEpdaWXrS4-15" style="rounded=0;hachureGap=4;orthogonalLoop=1;jettySize=auto;html=1;exitX=0.5;exitY=1;exitDx=0;exitDy=0;entryX=1;entryY=0;entryDx=0;entryDy=0;fontFamily=Architects Daughter;fontSource=https%3A%2F%2Ffonts.googleapis.com%2Fcss%3Ffamily%3DArchitects%2BDaughter;fontSize=16;sketch=1;curveFitting=1;jiggle=2;" parent="fkDSugApjvzEpdaWXrS4-46" source="fkDSugApjvzEpdaWXrS4-11" target="fkDSugApjvzEpdaWXrS4-13" edge="1">
          <mxGeometry relative="1" as="geometry" />
        </mxCell>
        <mxCell id="fkDSugApjvzEpdaWXrS4-16" value="&lt;ul style=&quot;font-size: 18px;&quot;&gt;&lt;li style=&quot;font-size: 18px;&quot;&gt;&lt;font style=&quot;font-size: 18px;&quot;&gt;app&lt;/font&gt;&lt;/li&gt;&lt;li style=&quot;font-size: 18px;&quot;&gt;apple&lt;/li&gt;&lt;li style=&quot;font-size: 18px;&quot;&gt;apply&lt;/li&gt;&lt;li style=&quot;font-size: 18px;&quot;&gt;&lt;font color=&quot;#ff3333&quot;&gt;but&lt;/font&gt;&lt;/li&gt;&lt;/ul&gt;" style="html=1;aspect=fixed;sketch=1;hachureGap=4;jiggle=2;curveFitting=1;fontFamily=Architects Daughter;fontSource=https%3A%2F%2Ffonts.googleapis.com%2Fcss%3Ffamily%3DArchitects%2BDaughter;fontSize=18;align=left;spacing=2;whiteSpace=wrap;verticalAlign=middle;horizontal=1;fillColor=#f5f5f5;strokeColor=#666666;fontColor=#333333;" parent="fkDSugApjvzEpdaWXrS4-46" vertex="1">
          <mxGeometry width="102" height="102" as="geometry" />
        </mxCell>
        <mxCell id="fkDSugApjvzEpdaWXrS4-18" value="b" style="ellipse;whiteSpace=wrap;html=1;aspect=fixed;hachureGap=4;fontFamily=Architects Daughter;fontSource=https%3A%2F%2Ffonts.googleapis.com%2Fcss%3Ffamily%3DArchitects%2BDaughter;fontSize=20;strokeColor=#97D077;strokeWidth=2;sketch=1;curveFitting=1;jiggle=2;" parent="fkDSugApjvzEpdaWXrS4-46" vertex="1">
          <mxGeometry x="317" y="75" width="30" height="30" as="geometry" />
        </mxCell>
        <mxCell id="fkDSugApjvzEpdaWXrS4-5" style="rounded=0;sketch=1;hachureGap=4;jiggle=2;curveFitting=1;orthogonalLoop=1;jettySize=auto;html=1;exitX=0.5;exitY=1;exitDx=0;exitDy=0;entryX=0;entryY=0;entryDx=0;entryDy=0;fontFamily=Architects Daughter;fontSource=https%3A%2F%2Ffonts.googleapis.com%2Fcss%3Ffamily%3DArchitects%2BDaughter;fontSize=16;" parent="fkDSugApjvzEpdaWXrS4-46" source="fkDSugApjvzEpdaWXrS4-6" target="fkDSugApjvzEpdaWXrS4-18" edge="1">
          <mxGeometry relative="1" as="geometry" />
        </mxCell>
        <mxCell id="fkDSugApjvzEpdaWXrS4-20" value="u" style="ellipse;whiteSpace=wrap;html=1;aspect=fixed;hachureGap=4;fontFamily=Architects Daughter;fontSource=https%3A%2F%2Ffonts.googleapis.com%2Fcss%3Ffamily%3DArchitects%2BDaughter;fontSize=20;strokeColor=#97D077;strokeWidth=2;sketch=1;curveFitting=1;jiggle=2;" parent="fkDSugApjvzEpdaWXrS4-46" vertex="1">
          <mxGeometry x="351" y="127" width="30" height="30" as="geometry" />
        </mxCell>
        <mxCell id="fkDSugApjvzEpdaWXrS4-17" style="rounded=0;sketch=1;hachureGap=4;jiggle=2;curveFitting=1;orthogonalLoop=1;jettySize=auto;html=1;exitX=0.5;exitY=1;exitDx=0;exitDy=0;entryX=0;entryY=0;entryDx=0;entryDy=0;fontFamily=Architects Daughter;fontSource=https%3A%2F%2Ffonts.googleapis.com%2Fcss%3Ffamily%3DArchitects%2BDaughter;fontSize=16;" parent="fkDSugApjvzEpdaWXrS4-46" source="fkDSugApjvzEpdaWXrS4-18" target="fkDSugApjvzEpdaWXrS4-20" edge="1">
          <mxGeometry relative="1" as="geometry" />
        </mxCell>
        <mxCell id="fkDSugApjvzEpdaWXrS4-21" value="t" style="ellipse;whiteSpace=wrap;html=1;aspect=fixed;hachureGap=4;fontFamily=Architects Daughter;fontSource=https%3A%2F%2Ffonts.googleapis.com%2Fcss%3Ffamily%3DArchitects%2BDaughter;fontSize=20;strokeColor=#FF3333;strokeWidth=2;sketch=1;curveFitting=1;jiggle=2;" parent="fkDSugApjvzEpdaWXrS4-46" vertex="1">
          <mxGeometry x="385" y="178" width="30" height="30" as="geometry" />
        </mxCell>
        <mxCell id="fkDSugApjvzEpdaWXrS4-19" style="rounded=0;sketch=1;hachureGap=4;jiggle=2;curveFitting=1;orthogonalLoop=1;jettySize=auto;html=1;exitX=0.5;exitY=1;exitDx=0;exitDy=0;entryX=0;entryY=0;entryDx=0;entryDy=0;fontFamily=Architects Daughter;fontSource=https%3A%2F%2Ffonts.googleapis.com%2Fcss%3Ffamily%3DArchitects%2BDaughter;fontSize=16;" parent="fkDSugApjvzEpdaWXrS4-46" source="fkDSugApjvzEpdaWXrS4-20" target="fkDSugApjvzEpdaWXrS4-21" edge="1">
          <mxGeometry relative="1" as="geometry" />
        </mxCell>
        <mxCell id="fkDSugApjvzEpdaWXrS4-23" value="y" style="ellipse;whiteSpace=wrap;html=1;aspect=fixed;hachureGap=4;fontFamily=Architects Daughter;fontSource=https%3A%2F%2Ffonts.googleapis.com%2Fcss%3Ffamily%3DArchitects%2BDaughter;fontSize=20;strokeColor=#FF3333;strokeWidth=2;sketch=1;curveFitting=1;jiggle=2;" parent="fkDSugApjvzEpdaWXrS4-46" vertex="1">
          <mxGeometry x="195" y="289" width="30" height="30" as="geometry" />
        </mxCell>
        <mxCell id="fkDSugApjvzEpdaWXrS4-25" value="" style="shape=flexArrow;endArrow=classic;html=1;rounded=0;sketch=1;hachureGap=4;jiggle=2;curveFitting=1;fontFamily=Architects Daughter;fontSource=https%3A%2F%2Ffonts.googleapis.com%2Fcss%3Ffamily%3DArchitects%2BDaughter;fontSize=16;fillColor=#fff2cc;strokeColor=#d6b656;gradientColor=#ffd966;" parent="fkDSugApjvzEpdaWXrS4-46" edge="1">
          <mxGeometry width="50" height="50" relative="1" as="geometry">
            <mxPoint x="471" y="141.47000000000003" as="sourcePoint" />
            <mxPoint x="525" y="141.47000000000003" as="targetPoint" />
          </mxGeometry>
        </mxCell>
        <mxCell id="fkDSugApjvzEpdaWXrS4-28" value="Root" style="ellipse;whiteSpace=wrap;html=1;hachureGap=4;fontFamily=Architects Daughter;fontSource=https%3A%2F%2Ffonts.googleapis.com%2Fcss%3Ffamily%3DArchitects%2BDaughter;fontSize=20;fillColor=#fff2cc;strokeColor=#d6b656;sketch=1;curveFitting=1;jiggle=2;" parent="fkDSugApjvzEpdaWXrS4-46" vertex="1">
          <mxGeometry x="667" width="80" height="50" as="geometry" />
        </mxCell>
        <mxCell id="fkDSugApjvzEpdaWXrS4-24" style="rounded=0;sketch=1;hachureGap=4;jiggle=2;curveFitting=1;orthogonalLoop=1;jettySize=auto;html=1;exitX=1;exitY=1;exitDx=0;exitDy=0;entryX=0.5;entryY=0;entryDx=0;entryDy=0;fontFamily=Architects Daughter;fontSource=https%3A%2F%2Ffonts.googleapis.com%2Fcss%3Ffamily%3DArchitects%2BDaughter;fontSize=16;" parent="fkDSugApjvzEpdaWXrS4-46" source="fkDSugApjvzEpdaWXrS4-13" target="fkDSugApjvzEpdaWXrS4-23" edge="1">
          <mxGeometry relative="1" as="geometry" />
        </mxCell>
        <mxCell id="fkDSugApjvzEpdaWXrS4-30" value="a" style="ellipse;whiteSpace=wrap;html=1;aspect=fixed;hachureGap=4;fontFamily=Architects Daughter;fontSource=https%3A%2F%2Ffonts.googleapis.com%2Fcss%3Ffamily%3DArchitects%2BDaughter;fontSize=20;strokeColor=#97D077;strokeWidth=2;sketch=1;curveFitting=1;jiggle=2;" parent="fkDSugApjvzEpdaWXrS4-46" vertex="1">
          <mxGeometry x="665" y="75" width="30" height="30" as="geometry" />
        </mxCell>
        <mxCell id="fkDSugApjvzEpdaWXrS4-26" style="rounded=0;hachureGap=4;orthogonalLoop=1;jettySize=auto;html=1;exitX=0.5;exitY=1;exitDx=0;exitDy=0;entryX=1;entryY=0;entryDx=0;entryDy=0;fontFamily=Architects Daughter;fontSource=https%3A%2F%2Ffonts.googleapis.com%2Fcss%3Ffamily%3DArchitects%2BDaughter;fontSize=16;sketch=1;curveFitting=1;jiggle=2;" parent="fkDSugApjvzEpdaWXrS4-46" source="fkDSugApjvzEpdaWXrS4-28" target="fkDSugApjvzEpdaWXrS4-30" edge="1">
          <mxGeometry relative="1" as="geometry" />
        </mxCell>
        <mxCell id="fkDSugApjvzEpdaWXrS4-32" value="p" style="ellipse;whiteSpace=wrap;html=1;aspect=fixed;hachureGap=4;fontFamily=Architects Daughter;fontSource=https%3A%2F%2Ffonts.googleapis.com%2Fcss%3Ffamily%3DArchitects%2BDaughter;fontSize=20;strokeColor=#97D077;strokeWidth=2;sketch=1;curveFitting=1;jiggle=2;" parent="fkDSugApjvzEpdaWXrS4-46" vertex="1">
          <mxGeometry x="637" y="129" width="30" height="30" as="geometry" />
        </mxCell>
        <mxCell id="fkDSugApjvzEpdaWXrS4-29" style="rounded=0;hachureGap=4;orthogonalLoop=1;jettySize=auto;html=1;exitX=0.5;exitY=1;exitDx=0;exitDy=0;entryX=1;entryY=0;entryDx=0;entryDy=0;fontFamily=Architects Daughter;fontSource=https%3A%2F%2Ffonts.googleapis.com%2Fcss%3Ffamily%3DArchitects%2BDaughter;fontSize=16;sketch=1;curveFitting=1;jiggle=2;" parent="fkDSugApjvzEpdaWXrS4-46" source="fkDSugApjvzEpdaWXrS4-30" target="fkDSugApjvzEpdaWXrS4-32" edge="1">
          <mxGeometry relative="1" as="geometry" />
        </mxCell>
        <mxCell id="fkDSugApjvzEpdaWXrS4-33" value="p" style="ellipse;whiteSpace=wrap;html=1;aspect=fixed;hachureGap=4;fontFamily=Architects Daughter;fontSource=https%3A%2F%2Ffonts.googleapis.com%2Fcss%3Ffamily%3DArchitects%2BDaughter;fontSize=20;strokeColor=#FF3333;strokeWidth=2;sketch=1;curveFitting=1;jiggle=2;" parent="fkDSugApjvzEpdaWXrS4-46" vertex="1">
          <mxGeometry x="609" y="182" width="30" height="30" as="geometry" />
        </mxCell>
        <mxCell id="fkDSugApjvzEpdaWXrS4-36" value="l" style="ellipse;whiteSpace=wrap;html=1;aspect=fixed;hachureGap=4;fontFamily=Architects Daughter;fontSource=https%3A%2F%2Ffonts.googleapis.com%2Fcss%3Ffamily%3DArchitects%2BDaughter;fontSize=20;strokeColor=#97D077;strokeWidth=2;sketch=1;curveFitting=1;jiggle=2;" parent="fkDSugApjvzEpdaWXrS4-46" vertex="1">
          <mxGeometry x="581" y="236" width="30" height="30" as="geometry" />
        </mxCell>
        <mxCell id="fkDSugApjvzEpdaWXrS4-31" style="rounded=0;hachureGap=4;orthogonalLoop=1;jettySize=auto;html=1;exitX=0.5;exitY=1;exitDx=0;exitDy=0;entryX=1;entryY=0;entryDx=0;entryDy=0;fontFamily=Architects Daughter;fontSource=https%3A%2F%2Ffonts.googleapis.com%2Fcss%3Ffamily%3DArchitects%2BDaughter;fontSize=16;sketch=1;curveFitting=1;jiggle=2;" parent="fkDSugApjvzEpdaWXrS4-46" source="fkDSugApjvzEpdaWXrS4-32" target="fkDSugApjvzEpdaWXrS4-33" edge="1">
          <mxGeometry relative="1" as="geometry" />
        </mxCell>
        <mxCell id="fkDSugApjvzEpdaWXrS4-37" value="e" style="ellipse;whiteSpace=wrap;html=1;aspect=fixed;hachureGap=4;fontFamily=Architects Daughter;fontSource=https%3A%2F%2Ffonts.googleapis.com%2Fcss%3Ffamily%3DArchitects%2BDaughter;fontSize=20;strokeColor=#FF3333;strokeWidth=2;sketch=1;curveFitting=1;jiggle=2;" parent="fkDSugApjvzEpdaWXrS4-46" vertex="1">
          <mxGeometry x="553" y="289" width="30" height="30" as="geometry" />
        </mxCell>
        <mxCell id="fkDSugApjvzEpdaWXrS4-34" style="rounded=0;hachureGap=4;orthogonalLoop=1;jettySize=auto;html=1;exitX=0;exitY=1;exitDx=0;exitDy=0;entryX=0.5;entryY=0;entryDx=0;entryDy=0;fontFamily=Architects Daughter;fontSource=https%3A%2F%2Ffonts.googleapis.com%2Fcss%3Ffamily%3DArchitects%2BDaughter;fontSize=16;sketch=1;curveFitting=1;jiggle=2;" parent="fkDSugApjvzEpdaWXrS4-46" source="fkDSugApjvzEpdaWXrS4-36" target="fkDSugApjvzEpdaWXrS4-37" edge="1">
          <mxGeometry relative="1" as="geometry" />
        </mxCell>
        <mxCell id="fkDSugApjvzEpdaWXrS4-38" style="rounded=0;hachureGap=4;orthogonalLoop=1;jettySize=auto;html=1;exitX=0.5;exitY=1;exitDx=0;exitDy=0;entryX=1;entryY=0;entryDx=0;entryDy=0;fontFamily=Architects Daughter;fontSource=https%3A%2F%2Ffonts.googleapis.com%2Fcss%3Ffamily%3DArchitects%2BDaughter;fontSize=16;sketch=1;curveFitting=1;jiggle=2;" parent="fkDSugApjvzEpdaWXrS4-46" source="fkDSugApjvzEpdaWXrS4-33" target="fkDSugApjvzEpdaWXrS4-36" edge="1">
          <mxGeometry relative="1" as="geometry" />
        </mxCell>
        <mxCell id="fkDSugApjvzEpdaWXrS4-44" value="y" style="ellipse;whiteSpace=wrap;html=1;aspect=fixed;hachureGap=4;fontFamily=Architects Daughter;fontSource=https%3A%2F%2Ffonts.googleapis.com%2Fcss%3Ffamily%3DArchitects%2BDaughter;fontSize=20;strokeColor=#FF3333;strokeWidth=2;sketch=1;curveFitting=1;jiggle=2;" parent="fkDSugApjvzEpdaWXrS4-46" vertex="1">
          <mxGeometry x="609" y="289" width="30" height="30" as="geometry" />
        </mxCell>
        <mxCell id="fkDSugApjvzEpdaWXrS4-35" style="rounded=0;sketch=1;hachureGap=4;jiggle=2;curveFitting=1;orthogonalLoop=1;jettySize=auto;html=1;exitX=1;exitY=1;exitDx=0;exitDy=0;entryX=0.5;entryY=0;entryDx=0;entryDy=0;fontFamily=Architects Daughter;fontSource=https%3A%2F%2Ffonts.googleapis.com%2Fcss%3Ffamily%3DArchitects%2BDaughter;fontSize=16;" parent="fkDSugApjvzEpdaWXrS4-46" source="fkDSugApjvzEpdaWXrS4-36" target="fkDSugApjvzEpdaWXrS4-44" edge="1">
          <mxGeometry relative="1" as="geometry" />
        </mxCell>
        <mxCell id="fkDSugApjvzEpdaWXrS4-101" value="" style="group" parent="1" vertex="1" connectable="0">
          <mxGeometry x="10" y="1022" width="832" height="319" as="geometry" />
        </mxCell>
        <mxCell id="fkDSugApjvzEpdaWXrS4-48" value="Root" style="ellipse;whiteSpace=wrap;html=1;hachureGap=4;fontFamily=Architects Daughter;fontSource=https%3A%2F%2Ffonts.googleapis.com%2Fcss%3Ffamily%3DArchitects%2BDaughter;fontSize=20;fillColor=#fff2cc;strokeColor=#d6b656;sketch=1;curveFitting=1;jiggle=2;" parent="fkDSugApjvzEpdaWXrS4-101" vertex="1">
          <mxGeometry x="253" width="80" height="50" as="geometry" />
        </mxCell>
        <mxCell id="fkDSugApjvzEpdaWXrS4-49" value="a" style="ellipse;whiteSpace=wrap;html=1;aspect=fixed;hachureGap=4;fontFamily=Architects Daughter;fontSource=https%3A%2F%2Ffonts.googleapis.com%2Fcss%3Ffamily%3DArchitects%2BDaughter;fontSize=20;strokeColor=#97D077;strokeWidth=2;sketch=1;curveFitting=1;jiggle=2;" parent="fkDSugApjvzEpdaWXrS4-101" vertex="1">
          <mxGeometry x="251" y="75" width="30" height="30" as="geometry" />
        </mxCell>
        <mxCell id="fkDSugApjvzEpdaWXrS4-50" style="rounded=0;hachureGap=4;orthogonalLoop=1;jettySize=auto;html=1;exitX=0.5;exitY=1;exitDx=0;exitDy=0;entryX=1;entryY=0;entryDx=0;entryDy=0;fontFamily=Architects Daughter;fontSource=https%3A%2F%2Ffonts.googleapis.com%2Fcss%3Ffamily%3DArchitects%2BDaughter;fontSize=16;sketch=1;curveFitting=1;jiggle=2;" parent="fkDSugApjvzEpdaWXrS4-101" source="fkDSugApjvzEpdaWXrS4-48" target="fkDSugApjvzEpdaWXrS4-49" edge="1">
          <mxGeometry relative="1" as="geometry" />
        </mxCell>
        <mxCell id="fkDSugApjvzEpdaWXrS4-51" value="p" style="ellipse;whiteSpace=wrap;html=1;aspect=fixed;hachureGap=4;fontFamily=Architects Daughter;fontSource=https%3A%2F%2Ffonts.googleapis.com%2Fcss%3Ffamily%3DArchitects%2BDaughter;fontSize=20;strokeColor=#97D077;strokeWidth=2;sketch=1;curveFitting=1;jiggle=2;" parent="fkDSugApjvzEpdaWXrS4-101" vertex="1">
          <mxGeometry x="223" y="129" width="30" height="30" as="geometry" />
        </mxCell>
        <mxCell id="fkDSugApjvzEpdaWXrS4-52" style="rounded=0;hachureGap=4;orthogonalLoop=1;jettySize=auto;html=1;exitX=0.5;exitY=1;exitDx=0;exitDy=0;entryX=1;entryY=0;entryDx=0;entryDy=0;fontFamily=Architects Daughter;fontSource=https%3A%2F%2Ffonts.googleapis.com%2Fcss%3Ffamily%3DArchitects%2BDaughter;fontSize=16;sketch=1;curveFitting=1;jiggle=2;" parent="fkDSugApjvzEpdaWXrS4-101" source="fkDSugApjvzEpdaWXrS4-49" target="fkDSugApjvzEpdaWXrS4-51" edge="1">
          <mxGeometry relative="1" as="geometry" />
        </mxCell>
        <mxCell id="fkDSugApjvzEpdaWXrS4-53" value="p" style="ellipse;whiteSpace=wrap;html=1;aspect=fixed;hachureGap=4;fontFamily=Architects Daughter;fontSource=https%3A%2F%2Ffonts.googleapis.com%2Fcss%3Ffamily%3DArchitects%2BDaughter;fontSize=20;strokeColor=#FF3333;strokeWidth=2;sketch=1;curveFitting=1;jiggle=2;" parent="fkDSugApjvzEpdaWXrS4-101" vertex="1">
          <mxGeometry x="195" y="182" width="30" height="30" as="geometry" />
        </mxCell>
        <mxCell id="fkDSugApjvzEpdaWXrS4-54" style="rounded=0;hachureGap=4;orthogonalLoop=1;jettySize=auto;html=1;exitX=0.5;exitY=1;exitDx=0;exitDy=0;entryX=1;entryY=0;entryDx=0;entryDy=0;fontFamily=Architects Daughter;fontSource=https%3A%2F%2Ffonts.googleapis.com%2Fcss%3Ffamily%3DArchitects%2BDaughter;fontSize=16;sketch=1;curveFitting=1;jiggle=2;" parent="fkDSugApjvzEpdaWXrS4-101" source="fkDSugApjvzEpdaWXrS4-51" target="fkDSugApjvzEpdaWXrS4-53" edge="1">
          <mxGeometry relative="1" as="geometry" />
        </mxCell>
        <mxCell id="fkDSugApjvzEpdaWXrS4-55" value="l" style="ellipse;whiteSpace=wrap;html=1;aspect=fixed;hachureGap=4;fontFamily=Architects Daughter;fontSource=https%3A%2F%2Ffonts.googleapis.com%2Fcss%3Ffamily%3DArchitects%2BDaughter;fontSize=20;strokeColor=#97D077;strokeWidth=2;sketch=1;curveFitting=1;jiggle=2;" parent="fkDSugApjvzEpdaWXrS4-101" vertex="1">
          <mxGeometry x="167" y="236" width="30" height="30" as="geometry" />
        </mxCell>
        <mxCell id="fkDSugApjvzEpdaWXrS4-56" value="e" style="ellipse;whiteSpace=wrap;html=1;aspect=fixed;hachureGap=4;fontFamily=Architects Daughter;fontSource=https%3A%2F%2Ffonts.googleapis.com%2Fcss%3Ffamily%3DArchitects%2BDaughter;fontSize=20;strokeColor=#FF3333;strokeWidth=2;sketch=1;curveFitting=1;jiggle=2;" parent="fkDSugApjvzEpdaWXrS4-101" vertex="1">
          <mxGeometry x="139" y="289" width="30" height="30" as="geometry" />
        </mxCell>
        <mxCell id="fkDSugApjvzEpdaWXrS4-57" style="rounded=0;hachureGap=4;orthogonalLoop=1;jettySize=auto;html=1;exitX=0;exitY=1;exitDx=0;exitDy=0;entryX=0.5;entryY=0;entryDx=0;entryDy=0;fontFamily=Architects Daughter;fontSource=https%3A%2F%2Ffonts.googleapis.com%2Fcss%3Ffamily%3DArchitects%2BDaughter;fontSize=16;sketch=1;curveFitting=1;jiggle=2;" parent="fkDSugApjvzEpdaWXrS4-101" source="fkDSugApjvzEpdaWXrS4-55" target="fkDSugApjvzEpdaWXrS4-56" edge="1">
          <mxGeometry relative="1" as="geometry" />
        </mxCell>
        <mxCell id="fkDSugApjvzEpdaWXrS4-58" style="rounded=0;hachureGap=4;orthogonalLoop=1;jettySize=auto;html=1;exitX=0.5;exitY=1;exitDx=0;exitDy=0;entryX=1;entryY=0;entryDx=0;entryDy=0;fontFamily=Architects Daughter;fontSource=https%3A%2F%2Ffonts.googleapis.com%2Fcss%3Ffamily%3DArchitects%2BDaughter;fontSize=16;sketch=1;curveFitting=1;jiggle=2;" parent="fkDSugApjvzEpdaWXrS4-101" source="fkDSugApjvzEpdaWXrS4-53" target="fkDSugApjvzEpdaWXrS4-55" edge="1">
          <mxGeometry relative="1" as="geometry" />
        </mxCell>
        <mxCell id="fkDSugApjvzEpdaWXrS4-59" value="&lt;ul style=&quot;font-size: 18px;&quot;&gt;&lt;li style=&quot;font-size: 18px;&quot;&gt;&lt;font color=&quot;#ff0000&quot; style=&quot;font-size: 18px;&quot;&gt;app&lt;/font&gt;&lt;/li&gt;&lt;li style=&quot;font-size: 18px;&quot;&gt;apple&lt;/li&gt;&lt;li style=&quot;font-size: 18px;&quot;&gt;apply&lt;/li&gt;&lt;li style=&quot;font-size: 18px;&quot;&gt;&lt;font color=&quot;#000000&quot;&gt;but&lt;/font&gt;&lt;/li&gt;&lt;/ul&gt;" style="html=1;aspect=fixed;sketch=1;hachureGap=4;jiggle=2;curveFitting=1;fontFamily=Architects Daughter;fontSource=https%3A%2F%2Ffonts.googleapis.com%2Fcss%3Ffamily%3DArchitects%2BDaughter;fontSize=18;align=left;spacing=2;whiteSpace=wrap;verticalAlign=middle;horizontal=1;fillColor=#f5f5f5;strokeColor=#666666;fontColor=#333333;" parent="fkDSugApjvzEpdaWXrS4-101" vertex="1">
          <mxGeometry width="102" height="102" as="geometry" />
        </mxCell>
        <mxCell id="fkDSugApjvzEpdaWXrS4-60" value="b" style="ellipse;whiteSpace=wrap;html=1;aspect=fixed;hachureGap=4;fontFamily=Architects Daughter;fontSource=https%3A%2F%2Ffonts.googleapis.com%2Fcss%3Ffamily%3DArchitects%2BDaughter;fontSize=20;strokeColor=#97D077;strokeWidth=2;sketch=1;curveFitting=1;jiggle=2;" parent="fkDSugApjvzEpdaWXrS4-101" vertex="1">
          <mxGeometry x="317" y="75" width="30" height="30" as="geometry" />
        </mxCell>
        <mxCell id="fkDSugApjvzEpdaWXrS4-61" style="rounded=0;sketch=1;hachureGap=4;jiggle=2;curveFitting=1;orthogonalLoop=1;jettySize=auto;html=1;exitX=0.5;exitY=1;exitDx=0;exitDy=0;entryX=0;entryY=0;entryDx=0;entryDy=0;fontFamily=Architects Daughter;fontSource=https%3A%2F%2Ffonts.googleapis.com%2Fcss%3Ffamily%3DArchitects%2BDaughter;fontSize=16;" parent="fkDSugApjvzEpdaWXrS4-101" source="fkDSugApjvzEpdaWXrS4-48" target="fkDSugApjvzEpdaWXrS4-60" edge="1">
          <mxGeometry relative="1" as="geometry" />
        </mxCell>
        <mxCell id="fkDSugApjvzEpdaWXrS4-62" value="u" style="ellipse;whiteSpace=wrap;html=1;aspect=fixed;hachureGap=4;fontFamily=Architects Daughter;fontSource=https%3A%2F%2Ffonts.googleapis.com%2Fcss%3Ffamily%3DArchitects%2BDaughter;fontSize=20;strokeColor=#97D077;strokeWidth=2;sketch=1;curveFitting=1;jiggle=2;" parent="fkDSugApjvzEpdaWXrS4-101" vertex="1">
          <mxGeometry x="351" y="127" width="30" height="30" as="geometry" />
        </mxCell>
        <mxCell id="fkDSugApjvzEpdaWXrS4-63" style="rounded=0;sketch=1;hachureGap=4;jiggle=2;curveFitting=1;orthogonalLoop=1;jettySize=auto;html=1;exitX=0.5;exitY=1;exitDx=0;exitDy=0;entryX=0;entryY=0;entryDx=0;entryDy=0;fontFamily=Architects Daughter;fontSource=https%3A%2F%2Ffonts.googleapis.com%2Fcss%3Ffamily%3DArchitects%2BDaughter;fontSize=16;" parent="fkDSugApjvzEpdaWXrS4-101" source="fkDSugApjvzEpdaWXrS4-60" target="fkDSugApjvzEpdaWXrS4-62" edge="1">
          <mxGeometry relative="1" as="geometry" />
        </mxCell>
        <mxCell id="fkDSugApjvzEpdaWXrS4-64" value="t" style="ellipse;whiteSpace=wrap;html=1;aspect=fixed;hachureGap=4;fontFamily=Architects Daughter;fontSource=https%3A%2F%2Ffonts.googleapis.com%2Fcss%3Ffamily%3DArchitects%2BDaughter;fontSize=20;strokeColor=#FF3333;strokeWidth=2;sketch=1;curveFitting=1;jiggle=2;" parent="fkDSugApjvzEpdaWXrS4-101" vertex="1">
          <mxGeometry x="385" y="178" width="30" height="30" as="geometry" />
        </mxCell>
        <mxCell id="fkDSugApjvzEpdaWXrS4-65" style="rounded=0;sketch=1;hachureGap=4;jiggle=2;curveFitting=1;orthogonalLoop=1;jettySize=auto;html=1;exitX=0.5;exitY=1;exitDx=0;exitDy=0;entryX=0;entryY=0;entryDx=0;entryDy=0;fontFamily=Architects Daughter;fontSource=https%3A%2F%2Ffonts.googleapis.com%2Fcss%3Ffamily%3DArchitects%2BDaughter;fontSize=16;" parent="fkDSugApjvzEpdaWXrS4-101" source="fkDSugApjvzEpdaWXrS4-62" target="fkDSugApjvzEpdaWXrS4-64" edge="1">
          <mxGeometry relative="1" as="geometry" />
        </mxCell>
        <mxCell id="fkDSugApjvzEpdaWXrS4-66" value="y" style="ellipse;whiteSpace=wrap;html=1;aspect=fixed;hachureGap=4;fontFamily=Architects Daughter;fontSource=https%3A%2F%2Ffonts.googleapis.com%2Fcss%3Ffamily%3DArchitects%2BDaughter;fontSize=20;strokeColor=#FF3333;strokeWidth=2;sketch=1;curveFitting=1;jiggle=2;" parent="fkDSugApjvzEpdaWXrS4-101" vertex="1">
          <mxGeometry x="195" y="289" width="30" height="30" as="geometry" />
        </mxCell>
        <mxCell id="fkDSugApjvzEpdaWXrS4-67" value="" style="shape=flexArrow;endArrow=classic;html=1;rounded=0;sketch=1;hachureGap=4;jiggle=2;curveFitting=1;fontFamily=Architects Daughter;fontSource=https%3A%2F%2Ffonts.googleapis.com%2Fcss%3Ffamily%3DArchitects%2BDaughter;fontSize=16;fillColor=#fff2cc;strokeColor=#d6b656;gradientColor=#ffd966;" parent="fkDSugApjvzEpdaWXrS4-101" edge="1">
          <mxGeometry width="50" height="50" relative="1" as="geometry">
            <mxPoint x="471" y="141.47000000000003" as="sourcePoint" />
            <mxPoint x="525" y="141.47000000000003" as="targetPoint" />
          </mxGeometry>
        </mxCell>
        <mxCell id="fkDSugApjvzEpdaWXrS4-69" style="rounded=0;sketch=1;hachureGap=4;jiggle=2;curveFitting=1;orthogonalLoop=1;jettySize=auto;html=1;exitX=1;exitY=1;exitDx=0;exitDy=0;entryX=0.5;entryY=0;entryDx=0;entryDy=0;fontFamily=Architects Daughter;fontSource=https%3A%2F%2Ffonts.googleapis.com%2Fcss%3Ffamily%3DArchitects%2BDaughter;fontSize=16;" parent="fkDSugApjvzEpdaWXrS4-101" source="fkDSugApjvzEpdaWXrS4-55" target="fkDSugApjvzEpdaWXrS4-66" edge="1">
          <mxGeometry relative="1" as="geometry" />
        </mxCell>
        <mxCell id="fkDSugApjvzEpdaWXrS4-82" value="Root" style="ellipse;whiteSpace=wrap;html=1;hachureGap=4;fontFamily=Architects Daughter;fontSource=https%3A%2F%2Ffonts.googleapis.com%2Fcss%3Ffamily%3DArchitects%2BDaughter;fontSize=20;fillColor=#fff2cc;strokeColor=#d6b656;sketch=1;curveFitting=1;jiggle=2;" parent="fkDSugApjvzEpdaWXrS4-101" vertex="1">
          <mxGeometry x="670" width="80" height="50" as="geometry" />
        </mxCell>
        <mxCell id="fkDSugApjvzEpdaWXrS4-83" value="a" style="ellipse;whiteSpace=wrap;html=1;aspect=fixed;hachureGap=4;fontFamily=Architects Daughter;fontSource=https%3A%2F%2Ffonts.googleapis.com%2Fcss%3Ffamily%3DArchitects%2BDaughter;fontSize=20;strokeColor=#97D077;strokeWidth=2;sketch=1;curveFitting=1;jiggle=2;" parent="fkDSugApjvzEpdaWXrS4-101" vertex="1">
          <mxGeometry x="668" y="75" width="30" height="30" as="geometry" />
        </mxCell>
        <mxCell id="fkDSugApjvzEpdaWXrS4-84" style="rounded=0;hachureGap=4;orthogonalLoop=1;jettySize=auto;html=1;exitX=0.5;exitY=1;exitDx=0;exitDy=0;entryX=1;entryY=0;entryDx=0;entryDy=0;fontFamily=Architects Daughter;fontSource=https%3A%2F%2Ffonts.googleapis.com%2Fcss%3Ffamily%3DArchitects%2BDaughter;fontSize=16;sketch=1;curveFitting=1;jiggle=2;" parent="fkDSugApjvzEpdaWXrS4-101" source="fkDSugApjvzEpdaWXrS4-82" target="fkDSugApjvzEpdaWXrS4-83" edge="1">
          <mxGeometry relative="1" as="geometry" />
        </mxCell>
        <mxCell id="fkDSugApjvzEpdaWXrS4-85" value="p" style="ellipse;whiteSpace=wrap;html=1;aspect=fixed;hachureGap=4;fontFamily=Architects Daughter;fontSource=https%3A%2F%2Ffonts.googleapis.com%2Fcss%3Ffamily%3DArchitects%2BDaughter;fontSize=20;strokeColor=#97D077;strokeWidth=2;sketch=1;curveFitting=1;jiggle=2;" parent="fkDSugApjvzEpdaWXrS4-101" vertex="1">
          <mxGeometry x="640" y="129" width="30" height="30" as="geometry" />
        </mxCell>
        <mxCell id="fkDSugApjvzEpdaWXrS4-86" style="rounded=0;hachureGap=4;orthogonalLoop=1;jettySize=auto;html=1;exitX=0.5;exitY=1;exitDx=0;exitDy=0;entryX=1;entryY=0;entryDx=0;entryDy=0;fontFamily=Architects Daughter;fontSource=https%3A%2F%2Ffonts.googleapis.com%2Fcss%3Ffamily%3DArchitects%2BDaughter;fontSize=16;sketch=1;curveFitting=1;jiggle=2;" parent="fkDSugApjvzEpdaWXrS4-101" source="fkDSugApjvzEpdaWXrS4-83" target="fkDSugApjvzEpdaWXrS4-85" edge="1">
          <mxGeometry relative="1" as="geometry" />
        </mxCell>
        <mxCell id="fkDSugApjvzEpdaWXrS4-87" value="p" style="ellipse;whiteSpace=wrap;html=1;aspect=fixed;hachureGap=4;fontFamily=Architects Daughter;fontSource=https%3A%2F%2Ffonts.googleapis.com%2Fcss%3Ffamily%3DArchitects%2BDaughter;fontSize=20;strokeColor=#97D077;strokeWidth=2;sketch=1;curveFitting=1;jiggle=2;fillColor=none;" parent="fkDSugApjvzEpdaWXrS4-101" vertex="1">
          <mxGeometry x="612" y="182" width="30" height="30" as="geometry" />
        </mxCell>
        <mxCell id="fkDSugApjvzEpdaWXrS4-88" style="rounded=0;hachureGap=4;orthogonalLoop=1;jettySize=auto;html=1;exitX=0.5;exitY=1;exitDx=0;exitDy=0;entryX=1;entryY=0;entryDx=0;entryDy=0;fontFamily=Architects Daughter;fontSource=https%3A%2F%2Ffonts.googleapis.com%2Fcss%3Ffamily%3DArchitects%2BDaughter;fontSize=16;sketch=1;curveFitting=1;jiggle=2;" parent="fkDSugApjvzEpdaWXrS4-101" source="fkDSugApjvzEpdaWXrS4-85" target="fkDSugApjvzEpdaWXrS4-87" edge="1">
          <mxGeometry relative="1" as="geometry" />
        </mxCell>
        <mxCell id="fkDSugApjvzEpdaWXrS4-89" value="l" style="ellipse;whiteSpace=wrap;html=1;aspect=fixed;hachureGap=4;fontFamily=Architects Daughter;fontSource=https%3A%2F%2Ffonts.googleapis.com%2Fcss%3Ffamily%3DArchitects%2BDaughter;fontSize=20;strokeColor=#97D077;strokeWidth=2;sketch=1;curveFitting=1;jiggle=2;" parent="fkDSugApjvzEpdaWXrS4-101" vertex="1">
          <mxGeometry x="584" y="236" width="30" height="30" as="geometry" />
        </mxCell>
        <mxCell id="fkDSugApjvzEpdaWXrS4-90" value="e" style="ellipse;whiteSpace=wrap;html=1;aspect=fixed;hachureGap=4;fontFamily=Architects Daughter;fontSource=https%3A%2F%2Ffonts.googleapis.com%2Fcss%3Ffamily%3DArchitects%2BDaughter;fontSize=20;strokeColor=#FF3333;strokeWidth=2;sketch=1;curveFitting=1;jiggle=2;" parent="fkDSugApjvzEpdaWXrS4-101" vertex="1">
          <mxGeometry x="556" y="289" width="30" height="30" as="geometry" />
        </mxCell>
        <mxCell id="fkDSugApjvzEpdaWXrS4-91" style="rounded=0;hachureGap=4;orthogonalLoop=1;jettySize=auto;html=1;exitX=0;exitY=1;exitDx=0;exitDy=0;entryX=0.5;entryY=0;entryDx=0;entryDy=0;fontFamily=Architects Daughter;fontSource=https%3A%2F%2Ffonts.googleapis.com%2Fcss%3Ffamily%3DArchitects%2BDaughter;fontSize=16;sketch=1;curveFitting=1;jiggle=2;" parent="fkDSugApjvzEpdaWXrS4-101" source="fkDSugApjvzEpdaWXrS4-89" target="fkDSugApjvzEpdaWXrS4-90" edge="1">
          <mxGeometry relative="1" as="geometry" />
        </mxCell>
        <mxCell id="fkDSugApjvzEpdaWXrS4-92" style="rounded=0;hachureGap=4;orthogonalLoop=1;jettySize=auto;html=1;exitX=0.5;exitY=1;exitDx=0;exitDy=0;entryX=1;entryY=0;entryDx=0;entryDy=0;fontFamily=Architects Daughter;fontSource=https%3A%2F%2Ffonts.googleapis.com%2Fcss%3Ffamily%3DArchitects%2BDaughter;fontSize=16;sketch=1;curveFitting=1;jiggle=2;" parent="fkDSugApjvzEpdaWXrS4-101" source="fkDSugApjvzEpdaWXrS4-87" target="fkDSugApjvzEpdaWXrS4-89" edge="1">
          <mxGeometry relative="1" as="geometry" />
        </mxCell>
        <mxCell id="fkDSugApjvzEpdaWXrS4-93" value="b" style="ellipse;whiteSpace=wrap;html=1;aspect=fixed;hachureGap=4;fontFamily=Architects Daughter;fontSource=https%3A%2F%2Ffonts.googleapis.com%2Fcss%3Ffamily%3DArchitects%2BDaughter;fontSize=20;strokeColor=#97D077;strokeWidth=2;sketch=1;curveFitting=1;jiggle=2;" parent="fkDSugApjvzEpdaWXrS4-101" vertex="1">
          <mxGeometry x="734" y="75" width="30" height="30" as="geometry" />
        </mxCell>
        <mxCell id="fkDSugApjvzEpdaWXrS4-94" style="rounded=0;sketch=1;hachureGap=4;jiggle=2;curveFitting=1;orthogonalLoop=1;jettySize=auto;html=1;exitX=0.5;exitY=1;exitDx=0;exitDy=0;entryX=0;entryY=0;entryDx=0;entryDy=0;fontFamily=Architects Daughter;fontSource=https%3A%2F%2Ffonts.googleapis.com%2Fcss%3Ffamily%3DArchitects%2BDaughter;fontSize=16;" parent="fkDSugApjvzEpdaWXrS4-101" source="fkDSugApjvzEpdaWXrS4-82" target="fkDSugApjvzEpdaWXrS4-93" edge="1">
          <mxGeometry relative="1" as="geometry" />
        </mxCell>
        <mxCell id="fkDSugApjvzEpdaWXrS4-95" value="u" style="ellipse;whiteSpace=wrap;html=1;aspect=fixed;hachureGap=4;fontFamily=Architects Daughter;fontSource=https%3A%2F%2Ffonts.googleapis.com%2Fcss%3Ffamily%3DArchitects%2BDaughter;fontSize=20;strokeColor=#97D077;strokeWidth=2;sketch=1;curveFitting=1;jiggle=2;" parent="fkDSugApjvzEpdaWXrS4-101" vertex="1">
          <mxGeometry x="768" y="127" width="30" height="30" as="geometry" />
        </mxCell>
        <mxCell id="fkDSugApjvzEpdaWXrS4-96" style="rounded=0;sketch=1;hachureGap=4;jiggle=2;curveFitting=1;orthogonalLoop=1;jettySize=auto;html=1;exitX=0.5;exitY=1;exitDx=0;exitDy=0;entryX=0;entryY=0;entryDx=0;entryDy=0;fontFamily=Architects Daughter;fontSource=https%3A%2F%2Ffonts.googleapis.com%2Fcss%3Ffamily%3DArchitects%2BDaughter;fontSize=16;" parent="fkDSugApjvzEpdaWXrS4-101" source="fkDSugApjvzEpdaWXrS4-93" target="fkDSugApjvzEpdaWXrS4-95" edge="1">
          <mxGeometry relative="1" as="geometry" />
        </mxCell>
        <mxCell id="fkDSugApjvzEpdaWXrS4-97" value="t" style="ellipse;whiteSpace=wrap;html=1;aspect=fixed;hachureGap=4;fontFamily=Architects Daughter;fontSource=https%3A%2F%2Ffonts.googleapis.com%2Fcss%3Ffamily%3DArchitects%2BDaughter;fontSize=20;strokeColor=#FF3333;strokeWidth=2;sketch=1;curveFitting=1;jiggle=2;" parent="fkDSugApjvzEpdaWXrS4-101" vertex="1">
          <mxGeometry x="802" y="178" width="30" height="30" as="geometry" />
        </mxCell>
        <mxCell id="fkDSugApjvzEpdaWXrS4-98" style="rounded=0;sketch=1;hachureGap=4;jiggle=2;curveFitting=1;orthogonalLoop=1;jettySize=auto;html=1;exitX=0.5;exitY=1;exitDx=0;exitDy=0;entryX=0;entryY=0;entryDx=0;entryDy=0;fontFamily=Architects Daughter;fontSource=https%3A%2F%2Ffonts.googleapis.com%2Fcss%3Ffamily%3DArchitects%2BDaughter;fontSize=16;" parent="fkDSugApjvzEpdaWXrS4-101" source="fkDSugApjvzEpdaWXrS4-95" target="fkDSugApjvzEpdaWXrS4-97" edge="1">
          <mxGeometry relative="1" as="geometry" />
        </mxCell>
        <mxCell id="fkDSugApjvzEpdaWXrS4-99" value="y" style="ellipse;whiteSpace=wrap;html=1;aspect=fixed;hachureGap=4;fontFamily=Architects Daughter;fontSource=https%3A%2F%2Ffonts.googleapis.com%2Fcss%3Ffamily%3DArchitects%2BDaughter;fontSize=20;strokeColor=#FF3333;strokeWidth=2;sketch=1;curveFitting=1;jiggle=2;" parent="fkDSugApjvzEpdaWXrS4-101" vertex="1">
          <mxGeometry x="612" y="289" width="30" height="30" as="geometry" />
        </mxCell>
        <mxCell id="fkDSugApjvzEpdaWXrS4-100" style="rounded=0;sketch=1;hachureGap=4;jiggle=2;curveFitting=1;orthogonalLoop=1;jettySize=auto;html=1;exitX=1;exitY=1;exitDx=0;exitDy=0;entryX=0.5;entryY=0;entryDx=0;entryDy=0;fontFamily=Architects Daughter;fontSource=https%3A%2F%2Ffonts.googleapis.com%2Fcss%3Ffamily%3DArchitects%2BDaughter;fontSize=16;" parent="fkDSugApjvzEpdaWXrS4-101" source="fkDSugApjvzEpdaWXrS4-89" target="fkDSugApjvzEpdaWXrS4-99" edge="1">
          <mxGeometry relative="1" as="geometry" />
        </mxCell>
        <mxCell id="fkDSugApjvzEpdaWXrS4-102" value="Case 3. 与其他word有共同的前缀" style="text;html=1;strokeColor=#ae4132;fillColor=#fad9d5;align=center;verticalAlign=middle;whiteSpace=wrap;rounded=0;fontSize=20;fontFamily=Architects Daughter;sketch=1;curveFitting=1;jiggle=2;shadow=0;" parent="1" vertex="1">
          <mxGeometry x="10" y="1402" width="326" height="30" as="geometry" />
        </mxCell>
        <mxCell id="fkDSugApjvzEpdaWXrS4-103" value="" style="group" parent="1" vertex="1" connectable="0">
          <mxGeometry x="11" y="1475" width="832" height="319" as="geometry" />
        </mxCell>
        <mxCell id="fkDSugApjvzEpdaWXrS4-104" value="Root" style="ellipse;whiteSpace=wrap;html=1;hachureGap=4;fontFamily=Architects Daughter;fontSource=https%3A%2F%2Ffonts.googleapis.com%2Fcss%3Ffamily%3DArchitects%2BDaughter;fontSize=20;fillColor=#fff2cc;strokeColor=#d6b656;sketch=1;curveFitting=1;jiggle=2;" parent="fkDSugApjvzEpdaWXrS4-103" vertex="1">
          <mxGeometry x="253" width="80" height="50" as="geometry" />
        </mxCell>
        <mxCell id="fkDSugApjvzEpdaWXrS4-105" value="a" style="ellipse;whiteSpace=wrap;html=1;aspect=fixed;hachureGap=4;fontFamily=Architects Daughter;fontSource=https%3A%2F%2Ffonts.googleapis.com%2Fcss%3Ffamily%3DArchitects%2BDaughter;fontSize=20;strokeColor=#97D077;strokeWidth=2;sketch=1;curveFitting=1;jiggle=2;" parent="fkDSugApjvzEpdaWXrS4-103" vertex="1">
          <mxGeometry x="251" y="75" width="30" height="30" as="geometry" />
        </mxCell>
        <mxCell id="fkDSugApjvzEpdaWXrS4-106" style="rounded=0;hachureGap=4;orthogonalLoop=1;jettySize=auto;html=1;exitX=0.5;exitY=1;exitDx=0;exitDy=0;entryX=1;entryY=0;entryDx=0;entryDy=0;fontFamily=Architects Daughter;fontSource=https%3A%2F%2Ffonts.googleapis.com%2Fcss%3Ffamily%3DArchitects%2BDaughter;fontSize=16;sketch=1;curveFitting=1;jiggle=2;" parent="fkDSugApjvzEpdaWXrS4-103" source="fkDSugApjvzEpdaWXrS4-104" target="fkDSugApjvzEpdaWXrS4-105" edge="1">
          <mxGeometry relative="1" as="geometry" />
        </mxCell>
        <mxCell id="fkDSugApjvzEpdaWXrS4-107" value="p" style="ellipse;whiteSpace=wrap;html=1;aspect=fixed;hachureGap=4;fontFamily=Architects Daughter;fontSource=https%3A%2F%2Ffonts.googleapis.com%2Fcss%3Ffamily%3DArchitects%2BDaughter;fontSize=20;strokeColor=#97D077;strokeWidth=2;sketch=1;curveFitting=1;jiggle=2;" parent="fkDSugApjvzEpdaWXrS4-103" vertex="1">
          <mxGeometry x="223" y="129" width="30" height="30" as="geometry" />
        </mxCell>
        <mxCell id="fkDSugApjvzEpdaWXrS4-108" style="rounded=0;hachureGap=4;orthogonalLoop=1;jettySize=auto;html=1;exitX=0.5;exitY=1;exitDx=0;exitDy=0;entryX=1;entryY=0;entryDx=0;entryDy=0;fontFamily=Architects Daughter;fontSource=https%3A%2F%2Ffonts.googleapis.com%2Fcss%3Ffamily%3DArchitects%2BDaughter;fontSize=16;sketch=1;curveFitting=1;jiggle=2;" parent="fkDSugApjvzEpdaWXrS4-103" source="fkDSugApjvzEpdaWXrS4-105" target="fkDSugApjvzEpdaWXrS4-107" edge="1">
          <mxGeometry relative="1" as="geometry" />
        </mxCell>
        <mxCell id="fkDSugApjvzEpdaWXrS4-109" value="p" style="ellipse;whiteSpace=wrap;html=1;aspect=fixed;hachureGap=4;fontFamily=Architects Daughter;fontSource=https%3A%2F%2Ffonts.googleapis.com%2Fcss%3Ffamily%3DArchitects%2BDaughter;fontSize=20;strokeColor=#FF3333;strokeWidth=2;sketch=1;curveFitting=1;jiggle=2;" parent="fkDSugApjvzEpdaWXrS4-103" vertex="1">
          <mxGeometry x="195" y="182" width="30" height="30" as="geometry" />
        </mxCell>
        <mxCell id="fkDSugApjvzEpdaWXrS4-110" style="rounded=0;hachureGap=4;orthogonalLoop=1;jettySize=auto;html=1;exitX=0.5;exitY=1;exitDx=0;exitDy=0;entryX=1;entryY=0;entryDx=0;entryDy=0;fontFamily=Architects Daughter;fontSource=https%3A%2F%2Ffonts.googleapis.com%2Fcss%3Ffamily%3DArchitects%2BDaughter;fontSize=16;sketch=1;curveFitting=1;jiggle=2;" parent="fkDSugApjvzEpdaWXrS4-103" source="fkDSugApjvzEpdaWXrS4-107" target="fkDSugApjvzEpdaWXrS4-109" edge="1">
          <mxGeometry relative="1" as="geometry" />
        </mxCell>
        <mxCell id="fkDSugApjvzEpdaWXrS4-111" value="l" style="ellipse;whiteSpace=wrap;html=1;aspect=fixed;hachureGap=4;fontFamily=Architects Daughter;fontSource=https%3A%2F%2Ffonts.googleapis.com%2Fcss%3Ffamily%3DArchitects%2BDaughter;fontSize=20;strokeColor=#97D077;strokeWidth=2;sketch=1;curveFitting=1;jiggle=2;" parent="fkDSugApjvzEpdaWXrS4-103" vertex="1">
          <mxGeometry x="167" y="236" width="30" height="30" as="geometry" />
        </mxCell>
        <mxCell id="fkDSugApjvzEpdaWXrS4-112" value="e" style="ellipse;whiteSpace=wrap;html=1;aspect=fixed;hachureGap=4;fontFamily=Architects Daughter;fontSource=https%3A%2F%2Ffonts.googleapis.com%2Fcss%3Ffamily%3DArchitects%2BDaughter;fontSize=20;strokeColor=#FF3333;strokeWidth=2;sketch=1;curveFitting=1;jiggle=2;" parent="fkDSugApjvzEpdaWXrS4-103" vertex="1">
          <mxGeometry x="139" y="289" width="30" height="30" as="geometry" />
        </mxCell>
        <mxCell id="fkDSugApjvzEpdaWXrS4-113" style="rounded=0;hachureGap=4;orthogonalLoop=1;jettySize=auto;html=1;exitX=0;exitY=1;exitDx=0;exitDy=0;entryX=0.5;entryY=0;entryDx=0;entryDy=0;fontFamily=Architects Daughter;fontSource=https%3A%2F%2Ffonts.googleapis.com%2Fcss%3Ffamily%3DArchitects%2BDaughter;fontSize=16;sketch=1;curveFitting=1;jiggle=2;" parent="fkDSugApjvzEpdaWXrS4-103" source="fkDSugApjvzEpdaWXrS4-111" target="fkDSugApjvzEpdaWXrS4-112" edge="1">
          <mxGeometry relative="1" as="geometry" />
        </mxCell>
        <mxCell id="fkDSugApjvzEpdaWXrS4-114" style="rounded=0;hachureGap=4;orthogonalLoop=1;jettySize=auto;html=1;exitX=0.5;exitY=1;exitDx=0;exitDy=0;entryX=1;entryY=0;entryDx=0;entryDy=0;fontFamily=Architects Daughter;fontSource=https%3A%2F%2Ffonts.googleapis.com%2Fcss%3Ffamily%3DArchitects%2BDaughter;fontSize=16;sketch=1;curveFitting=1;jiggle=2;" parent="fkDSugApjvzEpdaWXrS4-103" source="fkDSugApjvzEpdaWXrS4-109" target="fkDSugApjvzEpdaWXrS4-111" edge="1">
          <mxGeometry relative="1" as="geometry" />
        </mxCell>
        <mxCell id="fkDSugApjvzEpdaWXrS4-115" value="&lt;ul style=&quot;font-size: 18px;&quot;&gt;&lt;li style=&quot;font-size: 18px;&quot;&gt;&lt;font color=&quot;#000000&quot; style=&quot;font-size: 18px;&quot;&gt;app&lt;/font&gt;&lt;/li&gt;&lt;li style=&quot;font-size: 18px;&quot;&gt;&lt;font color=&quot;#ff0000&quot;&gt;apple&lt;/font&gt;&lt;/li&gt;&lt;li style=&quot;font-size: 18px;&quot;&gt;apply&lt;/li&gt;&lt;li style=&quot;font-size: 18px;&quot;&gt;&lt;font color=&quot;#000000&quot;&gt;but&lt;/font&gt;&lt;/li&gt;&lt;/ul&gt;" style="html=1;aspect=fixed;sketch=1;hachureGap=4;jiggle=2;curveFitting=1;fontFamily=Architects Daughter;fontSource=https%3A%2F%2Ffonts.googleapis.com%2Fcss%3Ffamily%3DArchitects%2BDaughter;fontSize=18;align=left;spacing=2;whiteSpace=wrap;verticalAlign=middle;horizontal=1;fillColor=#f5f5f5;strokeColor=#666666;fontColor=#333333;" parent="fkDSugApjvzEpdaWXrS4-103" vertex="1">
          <mxGeometry width="102" height="102" as="geometry" />
        </mxCell>
        <mxCell id="fkDSugApjvzEpdaWXrS4-116" value="b" style="ellipse;whiteSpace=wrap;html=1;aspect=fixed;hachureGap=4;fontFamily=Architects Daughter;fontSource=https%3A%2F%2Ffonts.googleapis.com%2Fcss%3Ffamily%3DArchitects%2BDaughter;fontSize=20;strokeColor=#97D077;strokeWidth=2;sketch=1;curveFitting=1;jiggle=2;" parent="fkDSugApjvzEpdaWXrS4-103" vertex="1">
          <mxGeometry x="317" y="75" width="30" height="30" as="geometry" />
        </mxCell>
        <mxCell id="fkDSugApjvzEpdaWXrS4-117" style="rounded=0;sketch=1;hachureGap=4;jiggle=2;curveFitting=1;orthogonalLoop=1;jettySize=auto;html=1;exitX=0.5;exitY=1;exitDx=0;exitDy=0;entryX=0;entryY=0;entryDx=0;entryDy=0;fontFamily=Architects Daughter;fontSource=https%3A%2F%2Ffonts.googleapis.com%2Fcss%3Ffamily%3DArchitects%2BDaughter;fontSize=16;" parent="fkDSugApjvzEpdaWXrS4-103" source="fkDSugApjvzEpdaWXrS4-104" target="fkDSugApjvzEpdaWXrS4-116" edge="1">
          <mxGeometry relative="1" as="geometry" />
        </mxCell>
        <mxCell id="fkDSugApjvzEpdaWXrS4-118" value="u" style="ellipse;whiteSpace=wrap;html=1;aspect=fixed;hachureGap=4;fontFamily=Architects Daughter;fontSource=https%3A%2F%2Ffonts.googleapis.com%2Fcss%3Ffamily%3DArchitects%2BDaughter;fontSize=20;strokeColor=#97D077;strokeWidth=2;sketch=1;curveFitting=1;jiggle=2;" parent="fkDSugApjvzEpdaWXrS4-103" vertex="1">
          <mxGeometry x="351" y="127" width="30" height="30" as="geometry" />
        </mxCell>
        <mxCell id="fkDSugApjvzEpdaWXrS4-119" style="rounded=0;sketch=1;hachureGap=4;jiggle=2;curveFitting=1;orthogonalLoop=1;jettySize=auto;html=1;exitX=0.5;exitY=1;exitDx=0;exitDy=0;entryX=0;entryY=0;entryDx=0;entryDy=0;fontFamily=Architects Daughter;fontSource=https%3A%2F%2Ffonts.googleapis.com%2Fcss%3Ffamily%3DArchitects%2BDaughter;fontSize=16;" parent="fkDSugApjvzEpdaWXrS4-103" source="fkDSugApjvzEpdaWXrS4-116" target="fkDSugApjvzEpdaWXrS4-118" edge="1">
          <mxGeometry relative="1" as="geometry" />
        </mxCell>
        <mxCell id="fkDSugApjvzEpdaWXrS4-120" value="t" style="ellipse;whiteSpace=wrap;html=1;aspect=fixed;hachureGap=4;fontFamily=Architects Daughter;fontSource=https%3A%2F%2Ffonts.googleapis.com%2Fcss%3Ffamily%3DArchitects%2BDaughter;fontSize=20;strokeColor=#FF3333;strokeWidth=2;sketch=1;curveFitting=1;jiggle=2;" parent="fkDSugApjvzEpdaWXrS4-103" vertex="1">
          <mxGeometry x="385" y="178" width="30" height="30" as="geometry" />
        </mxCell>
        <mxCell id="fkDSugApjvzEpdaWXrS4-121" style="rounded=0;sketch=1;hachureGap=4;jiggle=2;curveFitting=1;orthogonalLoop=1;jettySize=auto;html=1;exitX=0.5;exitY=1;exitDx=0;exitDy=0;entryX=0;entryY=0;entryDx=0;entryDy=0;fontFamily=Architects Daughter;fontSource=https%3A%2F%2Ffonts.googleapis.com%2Fcss%3Ffamily%3DArchitects%2BDaughter;fontSize=16;" parent="fkDSugApjvzEpdaWXrS4-103" source="fkDSugApjvzEpdaWXrS4-118" target="fkDSugApjvzEpdaWXrS4-120" edge="1">
          <mxGeometry relative="1" as="geometry" />
        </mxCell>
        <mxCell id="fkDSugApjvzEpdaWXrS4-122" value="y" style="ellipse;whiteSpace=wrap;html=1;aspect=fixed;hachureGap=4;fontFamily=Architects Daughter;fontSource=https%3A%2F%2Ffonts.googleapis.com%2Fcss%3Ffamily%3DArchitects%2BDaughter;fontSize=20;strokeColor=#FF3333;strokeWidth=2;sketch=1;curveFitting=1;jiggle=2;" parent="fkDSugApjvzEpdaWXrS4-103" vertex="1">
          <mxGeometry x="195" y="289" width="30" height="30" as="geometry" />
        </mxCell>
        <mxCell id="fkDSugApjvzEpdaWXrS4-123" value="" style="shape=flexArrow;endArrow=classic;html=1;rounded=0;sketch=1;hachureGap=4;jiggle=2;curveFitting=1;fontFamily=Architects Daughter;fontSource=https%3A%2F%2Ffonts.googleapis.com%2Fcss%3Ffamily%3DArchitects%2BDaughter;fontSize=16;fillColor=#fff2cc;strokeColor=#d6b656;gradientColor=#ffd966;" parent="fkDSugApjvzEpdaWXrS4-103" edge="1">
          <mxGeometry width="50" height="50" relative="1" as="geometry">
            <mxPoint x="471" y="141.47000000000003" as="sourcePoint" />
            <mxPoint x="525" y="141.47000000000003" as="targetPoint" />
          </mxGeometry>
        </mxCell>
        <mxCell id="fkDSugApjvzEpdaWXrS4-124" style="rounded=0;sketch=1;hachureGap=4;jiggle=2;curveFitting=1;orthogonalLoop=1;jettySize=auto;html=1;exitX=1;exitY=1;exitDx=0;exitDy=0;entryX=0.5;entryY=0;entryDx=0;entryDy=0;fontFamily=Architects Daughter;fontSource=https%3A%2F%2Ffonts.googleapis.com%2Fcss%3Ffamily%3DArchitects%2BDaughter;fontSize=16;" parent="fkDSugApjvzEpdaWXrS4-103" source="fkDSugApjvzEpdaWXrS4-111" target="fkDSugApjvzEpdaWXrS4-122" edge="1">
          <mxGeometry relative="1" as="geometry" />
        </mxCell>
        <mxCell id="fkDSugApjvzEpdaWXrS4-125" value="Root" style="ellipse;whiteSpace=wrap;html=1;hachureGap=4;fontFamily=Architects Daughter;fontSource=https%3A%2F%2Ffonts.googleapis.com%2Fcss%3Ffamily%3DArchitects%2BDaughter;fontSize=20;fillColor=#fff2cc;strokeColor=#d6b656;sketch=1;curveFitting=1;jiggle=2;" parent="fkDSugApjvzEpdaWXrS4-103" vertex="1">
          <mxGeometry x="670" width="80" height="50" as="geometry" />
        </mxCell>
        <mxCell id="fkDSugApjvzEpdaWXrS4-126" value="a" style="ellipse;whiteSpace=wrap;html=1;aspect=fixed;hachureGap=4;fontFamily=Architects Daughter;fontSource=https%3A%2F%2Ffonts.googleapis.com%2Fcss%3Ffamily%3DArchitects%2BDaughter;fontSize=20;strokeColor=#97D077;strokeWidth=2;sketch=1;curveFitting=1;jiggle=2;" parent="fkDSugApjvzEpdaWXrS4-103" vertex="1">
          <mxGeometry x="668" y="75" width="30" height="30" as="geometry" />
        </mxCell>
        <mxCell id="fkDSugApjvzEpdaWXrS4-127" style="rounded=0;hachureGap=4;orthogonalLoop=1;jettySize=auto;html=1;exitX=0.5;exitY=1;exitDx=0;exitDy=0;entryX=1;entryY=0;entryDx=0;entryDy=0;fontFamily=Architects Daughter;fontSource=https%3A%2F%2Ffonts.googleapis.com%2Fcss%3Ffamily%3DArchitects%2BDaughter;fontSize=16;sketch=1;curveFitting=1;jiggle=2;" parent="fkDSugApjvzEpdaWXrS4-103" source="fkDSugApjvzEpdaWXrS4-125" target="fkDSugApjvzEpdaWXrS4-126" edge="1">
          <mxGeometry relative="1" as="geometry" />
        </mxCell>
        <mxCell id="fkDSugApjvzEpdaWXrS4-128" value="p" style="ellipse;whiteSpace=wrap;html=1;aspect=fixed;hachureGap=4;fontFamily=Architects Daughter;fontSource=https%3A%2F%2Ffonts.googleapis.com%2Fcss%3Ffamily%3DArchitects%2BDaughter;fontSize=20;strokeColor=#97D077;strokeWidth=2;sketch=1;curveFitting=1;jiggle=2;" parent="fkDSugApjvzEpdaWXrS4-103" vertex="1">
          <mxGeometry x="640" y="129" width="30" height="30" as="geometry" />
        </mxCell>
        <mxCell id="fkDSugApjvzEpdaWXrS4-129" style="rounded=0;hachureGap=4;orthogonalLoop=1;jettySize=auto;html=1;exitX=0.5;exitY=1;exitDx=0;exitDy=0;entryX=1;entryY=0;entryDx=0;entryDy=0;fontFamily=Architects Daughter;fontSource=https%3A%2F%2Ffonts.googleapis.com%2Fcss%3Ffamily%3DArchitects%2BDaughter;fontSize=16;sketch=1;curveFitting=1;jiggle=2;" parent="fkDSugApjvzEpdaWXrS4-103" source="fkDSugApjvzEpdaWXrS4-126" target="fkDSugApjvzEpdaWXrS4-128" edge="1">
          <mxGeometry relative="1" as="geometry" />
        </mxCell>
        <mxCell id="fkDSugApjvzEpdaWXrS4-130" value="p" style="ellipse;whiteSpace=wrap;html=1;aspect=fixed;hachureGap=4;fontFamily=Architects Daughter;fontSource=https%3A%2F%2Ffonts.googleapis.com%2Fcss%3Ffamily%3DArchitects%2BDaughter;fontSize=20;strokeColor=#FF0000;strokeWidth=2;sketch=1;curveFitting=1;jiggle=2;fillColor=none;" parent="fkDSugApjvzEpdaWXrS4-103" vertex="1">
          <mxGeometry x="612" y="182" width="30" height="30" as="geometry" />
        </mxCell>
        <mxCell id="fkDSugApjvzEpdaWXrS4-131" style="rounded=0;hachureGap=4;orthogonalLoop=1;jettySize=auto;html=1;exitX=0.5;exitY=1;exitDx=0;exitDy=0;entryX=1;entryY=0;entryDx=0;entryDy=0;fontFamily=Architects Daughter;fontSource=https%3A%2F%2Ffonts.googleapis.com%2Fcss%3Ffamily%3DArchitects%2BDaughter;fontSize=16;sketch=1;curveFitting=1;jiggle=2;" parent="fkDSugApjvzEpdaWXrS4-103" source="fkDSugApjvzEpdaWXrS4-128" target="fkDSugApjvzEpdaWXrS4-130" edge="1">
          <mxGeometry relative="1" as="geometry" />
        </mxCell>
        <mxCell id="fkDSugApjvzEpdaWXrS4-132" value="l" style="ellipse;whiteSpace=wrap;html=1;aspect=fixed;hachureGap=4;fontFamily=Architects Daughter;fontSource=https%3A%2F%2Ffonts.googleapis.com%2Fcss%3Ffamily%3DArchitects%2BDaughter;fontSize=20;strokeColor=#97D077;strokeWidth=2;sketch=1;curveFitting=1;jiggle=2;" parent="fkDSugApjvzEpdaWXrS4-103" vertex="1">
          <mxGeometry x="584" y="236" width="30" height="30" as="geometry" />
        </mxCell>
        <mxCell id="fkDSugApjvzEpdaWXrS4-135" style="rounded=0;hachureGap=4;orthogonalLoop=1;jettySize=auto;html=1;exitX=0.5;exitY=1;exitDx=0;exitDy=0;entryX=1;entryY=0;entryDx=0;entryDy=0;fontFamily=Architects Daughter;fontSource=https%3A%2F%2Ffonts.googleapis.com%2Fcss%3Ffamily%3DArchitects%2BDaughter;fontSize=16;sketch=1;curveFitting=1;jiggle=2;" parent="fkDSugApjvzEpdaWXrS4-103" source="fkDSugApjvzEpdaWXrS4-130" target="fkDSugApjvzEpdaWXrS4-132" edge="1">
          <mxGeometry relative="1" as="geometry" />
        </mxCell>
        <mxCell id="fkDSugApjvzEpdaWXrS4-136" value="b" style="ellipse;whiteSpace=wrap;html=1;aspect=fixed;hachureGap=4;fontFamily=Architects Daughter;fontSource=https%3A%2F%2Ffonts.googleapis.com%2Fcss%3Ffamily%3DArchitects%2BDaughter;fontSize=20;strokeColor=#97D077;strokeWidth=2;sketch=1;curveFitting=1;jiggle=2;" parent="fkDSugApjvzEpdaWXrS4-103" vertex="1">
          <mxGeometry x="734" y="75" width="30" height="30" as="geometry" />
        </mxCell>
        <mxCell id="fkDSugApjvzEpdaWXrS4-137" style="rounded=0;sketch=1;hachureGap=4;jiggle=2;curveFitting=1;orthogonalLoop=1;jettySize=auto;html=1;exitX=0.5;exitY=1;exitDx=0;exitDy=0;entryX=0;entryY=0;entryDx=0;entryDy=0;fontFamily=Architects Daughter;fontSource=https%3A%2F%2Ffonts.googleapis.com%2Fcss%3Ffamily%3DArchitects%2BDaughter;fontSize=16;" parent="fkDSugApjvzEpdaWXrS4-103" source="fkDSugApjvzEpdaWXrS4-125" target="fkDSugApjvzEpdaWXrS4-136" edge="1">
          <mxGeometry relative="1" as="geometry" />
        </mxCell>
        <mxCell id="fkDSugApjvzEpdaWXrS4-138" value="u" style="ellipse;whiteSpace=wrap;html=1;aspect=fixed;hachureGap=4;fontFamily=Architects Daughter;fontSource=https%3A%2F%2Ffonts.googleapis.com%2Fcss%3Ffamily%3DArchitects%2BDaughter;fontSize=20;strokeColor=#97D077;strokeWidth=2;sketch=1;curveFitting=1;jiggle=2;" parent="fkDSugApjvzEpdaWXrS4-103" vertex="1">
          <mxGeometry x="768" y="127" width="30" height="30" as="geometry" />
        </mxCell>
        <mxCell id="fkDSugApjvzEpdaWXrS4-139" style="rounded=0;sketch=1;hachureGap=4;jiggle=2;curveFitting=1;orthogonalLoop=1;jettySize=auto;html=1;exitX=0.5;exitY=1;exitDx=0;exitDy=0;entryX=0;entryY=0;entryDx=0;entryDy=0;fontFamily=Architects Daughter;fontSource=https%3A%2F%2Ffonts.googleapis.com%2Fcss%3Ffamily%3DArchitects%2BDaughter;fontSize=16;" parent="fkDSugApjvzEpdaWXrS4-103" source="fkDSugApjvzEpdaWXrS4-136" target="fkDSugApjvzEpdaWXrS4-138" edge="1">
          <mxGeometry relative="1" as="geometry" />
        </mxCell>
        <mxCell id="fkDSugApjvzEpdaWXrS4-140" value="t" style="ellipse;whiteSpace=wrap;html=1;aspect=fixed;hachureGap=4;fontFamily=Architects Daughter;fontSource=https%3A%2F%2Ffonts.googleapis.com%2Fcss%3Ffamily%3DArchitects%2BDaughter;fontSize=20;strokeColor=#FF3333;strokeWidth=2;sketch=1;curveFitting=1;jiggle=2;" parent="fkDSugApjvzEpdaWXrS4-103" vertex="1">
          <mxGeometry x="802" y="178" width="30" height="30" as="geometry" />
        </mxCell>
        <mxCell id="fkDSugApjvzEpdaWXrS4-141" style="rounded=0;sketch=1;hachureGap=4;jiggle=2;curveFitting=1;orthogonalLoop=1;jettySize=auto;html=1;exitX=0.5;exitY=1;exitDx=0;exitDy=0;entryX=0;entryY=0;entryDx=0;entryDy=0;fontFamily=Architects Daughter;fontSource=https%3A%2F%2Ffonts.googleapis.com%2Fcss%3Ffamily%3DArchitects%2BDaughter;fontSize=16;" parent="fkDSugApjvzEpdaWXrS4-103" source="fkDSugApjvzEpdaWXrS4-138" target="fkDSugApjvzEpdaWXrS4-140" edge="1">
          <mxGeometry relative="1" as="geometry" />
        </mxCell>
        <mxCell id="fkDSugApjvzEpdaWXrS4-142" value="y" style="ellipse;whiteSpace=wrap;html=1;aspect=fixed;hachureGap=4;fontFamily=Architects Daughter;fontSource=https%3A%2F%2Ffonts.googleapis.com%2Fcss%3Ffamily%3DArchitects%2BDaughter;fontSize=20;strokeColor=#FF3333;strokeWidth=2;sketch=1;curveFitting=1;jiggle=2;" parent="fkDSugApjvzEpdaWXrS4-103" vertex="1">
          <mxGeometry x="612" y="289" width="30" height="30" as="geometry" />
        </mxCell>
        <mxCell id="fkDSugApjvzEpdaWXrS4-143" style="rounded=0;sketch=1;hachureGap=4;jiggle=2;curveFitting=1;orthogonalLoop=1;jettySize=auto;html=1;exitX=1;exitY=1;exitDx=0;exitDy=0;entryX=0.5;entryY=0;entryDx=0;entryDy=0;fontFamily=Architects Daughter;fontSource=https%3A%2F%2Ffonts.googleapis.com%2Fcss%3Ffamily%3DArchitects%2BDaughter;fontSize=16;" parent="fkDSugApjvzEpdaWXrS4-103" source="fkDSugApjvzEpdaWXrS4-132" target="fkDSugApjvzEpdaWXrS4-142" edge="1">
          <mxGeometry relative="1" as="geometry" />
        </mxCell>
      </root>
    </mxGraphModel>
  </diagram>
</mxfile>
